<svg width="52" height="52" viewBox="0 0 52 52" fill="none" xmlns="http://www.w3.org/2000/svg">
<path d="M17.2381 4.28516H35.2358C42.0921 4.28516 47.6628 9.85587 47.6628 16.7121V34.7098C47.6628 38.0057 46.3535 41.1665 44.023 43.497C41.6925 45.8275 38.5317 47.1368 35.2358 47.1368H17.2381C10.3819 47.1368 4.81116 41.5661 4.81116 34.7098V16.7121C4.81116 13.4163 6.12042 10.2554 8.45093 7.92493C10.7814 5.59442 13.9423 4.28516 17.2381 4.28516ZM16.8096 8.57032C14.7639 8.57032 12.802 9.38297 11.3555 10.8295C9.90897 12.276 9.09632 14.2379 9.09632 16.2836V35.1383C9.09632 39.4021 12.5459 42.8516 16.8096 42.8516H35.6643C37.71 42.8516 39.6719 42.039 41.1185 40.5925C42.565 39.1459 43.3776 37.184 43.3776 35.1383V16.2836C43.3776 12.0199 39.9281 8.57032 35.6643 8.57032H16.8096ZM37.4855 11.7842C38.1958 11.7842 38.8771 12.0664 39.3793 12.5686C39.8816 13.0709 40.1638 13.7521 40.1638 14.4624C40.1638 15.1727 39.8816 15.8539 39.3793 16.3562C38.8771 16.8585 38.1958 17.1406 37.4855 17.1406C36.7752 17.1406 36.094 16.8585 35.5917 16.3562C35.0895 15.8539 34.8073 15.1727 34.8073 14.4624C34.8073 13.7521 35.0895 13.0709 35.5917 12.5686C36.094 12.0664 36.7752 11.7842 37.4855 11.7842ZM26.237 14.9981C29.0782 14.9981 31.8031 16.1267 33.8121 18.1358C35.8212 20.1449 36.9499 22.8697 36.9499 25.711C36.9499 28.5522 35.8212 31.2771 33.8121 33.2861C31.8031 35.2952 29.0782 36.4239 26.237 36.4239C23.3957 36.4239 20.6709 35.2952 18.6618 33.2861C16.6527 31.2771 15.5241 28.5522 15.5241 25.711C15.5241 22.8697 16.6527 20.1449 18.6618 18.1358C20.6709 16.1267 23.3957 14.9981 26.237 14.9981ZM26.237 19.2832C24.5322 19.2832 22.8973 19.9604 21.6919 21.1659C20.4864 22.3713 19.8092 24.0062 19.8092 25.711C19.8092 27.4157 20.4864 29.0506 21.6919 30.2561C22.8973 31.4615 24.5322 32.1387 26.237 32.1387C27.9417 32.1387 29.5766 31.4615 30.7821 30.2561C31.9875 29.0506 32.6647 27.4157 32.6647 25.711C32.6647 24.0062 31.9875 22.3713 30.7821 21.1659C29.5766 19.9604 27.9417 19.2832 26.237 19.2832Z" fill="white" fill-opacity="0.6"/>
</svg>
