<svg width="52" height="52" viewBox="0 0 52 52" fill="none" xmlns="http://www.w3.org/2000/svg">
<path d="M21.3849 32.3685L33.6864 25.3095L21.3849 18.2504V32.3685ZM48.7848 13.9444C49.0929 15.0503 49.3062 16.5327 49.4485 18.4151C49.6144 20.2976 49.6855 21.9211 49.6855 23.3329L49.8277 25.3095C49.8277 30.4626 49.4484 34.2509 48.7848 36.6745C48.1922 38.7922 46.8175 40.157 44.6843 40.7453C43.5703 41.0511 41.5319 41.2629 38.4032 41.4041C35.3219 41.5688 32.5013 41.6394 29.894 41.6394L26.1254 41.7806C16.1941 41.7806 10.0078 41.4041 7.56647 40.7453C5.43326 40.157 4.05852 38.7922 3.46597 36.6745C3.15784 35.5686 2.94452 34.0862 2.8023 32.2038C2.63639 30.3214 2.56528 28.6978 2.56528 27.286L2.42307 25.3095C2.42307 20.1564 2.8023 16.368 3.46597 13.9444C4.05852 11.8267 5.43326 10.462 7.56647 9.87371C8.68048 9.56781 10.7189 9.35604 13.8476 9.21486C16.9289 9.05015 19.7495 8.97956 22.3567 8.97956L26.1254 8.83838C36.0566 8.83838 42.2429 9.21486 44.6843 9.87371C46.8175 10.462 48.1922 11.8267 48.7848 13.9444Z" fill="white" fill-opacity="0.6"/>
</svg>
